<svg xmlns="http://www.w3.org/2000/svg" aria-hidden="true" style="position:absolute;width:0;height:0;overflow:hidden">
  <defs>
    
    <symbol id="icon-facebook" viewBox="0 0 32 32">
      <path d="M21.329 5.313h2.921V.225C23.746.156 22.013 0 19.994 0c-4.212 0-7.097 2.649-7.097 7.519V12H8.249v5.688h4.648V32h5.699V17.689h4.46l.708-5.688h-5.169V8.082c.001-1.644.444-2.769 2.735-2.769z"/>
    </symbol>
    <symbol id="icon-instagram" viewBox="0 0 32 32">
      <path d="M31.969 9.408c-.075-1.7-.35-2.869-.744-3.882a7.803 7.803 0 0 0-1.85-2.838A7.867 7.867 0 0 0 26.543.844C25.524.45 24.361.175 22.661.1 20.948.019 20.404 0 16.06 0s-4.888.019-6.595.094c-1.7.075-2.869.35-3.882.744a7.803 7.803 0 0 0-2.838 1.85A7.867 7.867 0 0 0 .901 5.52C.507 6.539.232 7.702.157 9.402c-.081 1.713-.1 2.257-.1 6.601s.019 4.888.094 6.595c.075 1.7.35 2.869.744 3.882a7.895 7.895 0 0 0 1.85 2.838 7.867 7.867 0 0 0 2.832 1.844c1.019.394 2.182.669 3.882.744 1.706.075 2.25.094 6.595.094s4.888-.018 6.595-.094c1.7-.075 2.869-.35 3.882-.744a8.181 8.181 0 0 0 4.682-4.682c.394-1.019.669-2.182.744-3.882.075-1.707.094-2.251.094-6.595s-.006-4.888-.081-6.595zm-2.882 13.065c-.069 1.563-.331 2.407-.55 2.969a5.307 5.307 0 0 1-3.038 3.038c-.563.219-1.413.481-2.969.55-1.688.075-2.194.094-6.464.094s-4.782-.018-6.464-.094c-1.563-.069-2.407-.331-2.969-.55a4.926 4.926 0 0 1-1.838-1.194 4.974 4.974 0 0 1-1.194-1.838c-.219-.563-.481-1.413-.55-2.969-.075-1.688-.094-2.194-.094-6.464s.019-4.782.094-6.464c.069-1.563.331-2.407.55-2.969a4.868 4.868 0 0 1 1.2-1.838A4.974 4.974 0 0 1 6.639 3.55c.563-.219 1.413-.481 2.969-.55 1.688-.075 2.194-.094 6.464-.094 4.276 0 4.782.019 6.464.094 1.563.069 2.407.331 2.969.55a4.914 4.914 0 0 1 1.838 1.194 4.974 4.974 0 0 1 1.194 1.838c.219.563.481 1.413.55 2.969.075 1.688.094 2.194.094 6.464s-.019 4.77-.094 6.457z"/>
      <path d="M16.059 7.782c-4.538 0-8.22 3.682-8.22 8.22s3.682 8.22 8.22 8.22 8.22-3.682 8.22-8.22-3.682-8.22-8.22-8.22zm0 13.553a5.333 5.333 0 0 1 0-10.664 5.333 5.333 0 0 1 0 10.664zM26.524 7.457a1.919 1.919 0 1 1-3.838 0 1.919 1.919 0 0 1 3.838 0z"/>
    </symbol>
    <symbol id="icon-linkedin" viewBox="0 0 32 32">
      <path d="M31.992 32v-.001H32V20.263c0-5.741-1.236-10.164-7.948-10.164-3.227 0-5.392 1.771-6.276 3.449h-.093v-2.913h-6.364v21.364h6.627V21.42c0-2.785.528-5.479 3.977-5.479 3.399 0 3.449 3.179 3.449 5.657v10.401h6.62zM.528 10.636h6.635V32H.528V10.636zM3.843 0C1.722 0 0 1.721 0 3.843s1.721 3.879 3.843 3.879c2.121 0 3.843-1.757 3.843-3.879A3.846 3.846 0 0 0 3.843 0z"/>
    </symbol>  
    <symbol id="icon-twitter" viewBox="0 0 32 32">
      <path d="M32 6.078c-1.19.522-2.458.868-3.78 1.036a6.523 6.523 0 0 0 2.886-3.626 13.11 13.11 0 0 1-4.16 1.588A6.574 6.574 0 0 0 22.154 3c-3.632 0-6.556 2.948-6.556 6.562 0 .52.044 1.02.152 1.496-5.454-.266-10.28-2.88-13.522-6.862a6.605 6.605 0 0 0-.898 3.316 6.57 6.57 0 0 0 2.914 5.452 6.479 6.479 0 0 1-2.964-.808v.072c0 3.188 2.274 5.836 5.256 6.446a6.548 6.548 0 0 1-1.72.216 5.8 5.8 0 0 1-1.242-.112c.85 2.598 3.262 4.508 6.13 4.57a13.182 13.182 0 0 1-8.134 2.798c-.538 0-1.054-.024-1.57-.09A18.469 18.469 0 0 0 10.064 29c12.072 0 18.672-10 18.672-18.668 0-.29-.01-.57-.024-.848A13.087 13.087 0 0 0 32 6.078z"/>
    </symbol>
    <symbol id="icon-close-icon" viewBox="0 0 32 32">
     <path d="M32 3.224l-3.224-3.224-12.776 12.776-12.776-12.776-3.224 3.224 12.776 12.776-12.776 12.776 3.224 3.224 12.776-12.776 12.776 12.776 3.224-3.224-12.776-12.776 12.776-12.776z"></path>
    </symbol>
    <symbol id="icon-letter" viewBox="0 0 32 32">
      <path d="M32 2.667l-32 15 10.227 3.156 15.773-12.323-11.997 13.488 0.009 0.004-0.012-0.004v7.345l5.735-5.576 7.267 2.243 4.999-23.333z"></path>
    </symbol>
    <symbol id="icon-person" viewBox="0 0 32 32">
      <path d="M16 16c2.946 0 5.333-2.388 5.333-5.333s-2.388-5.333-5.333-5.333v0c-2.946 0-5.333 2.388-5.333 5.333s2.388 5.333 5.333 5.333v0zM16 18.667c-3.561 0-10.667 1.787-10.667 5.333v1.333c0 0.732 0.599 1.333 1.333 1.333h18.667c0.732 0 1.333-0.601 1.333-1.333v-1.333c0-3.547-7.108-5.333-10.667-5.333z"></path>
    </symbol>
    <symbol id="icon-phone" viewBox="0 0 24 32">
      <path d="M19.635 18.487l-2.451-0.28c-0.067-0.008-0.145-0.013-0.223-0.013-0.531 0-1.012 0.215-1.36 0.564l-1.775 1.775c-2.752-1.42-4.94-3.607-6.322-6.278l-0.038-0.081 1.787-1.785c0.347-0.347 0.562-0.827 0.562-1.358 0-0.079-0.005-0.156-0.014-0.233l0.001 0.009-0.28-2.432c-0.115-0.966-0.93-1.708-1.918-1.708-0.001 0-0.002 0-0.002 0h-1.669c-1.091 0-1.997 0.907-1.929 1.997 0.511 8.24 7.101 14.821 15.332 15.333 1.091 0.067 1.997-0.84 1.997-1.931v-1.669c0-0.003 0-0.007 0-0.011 0-0.981-0.739-1.789-1.69-1.899l-0.009-0.001z"></path>
    </symbol>
    <symbol id="icon-email" viewBox="0 0 24 32">
      <path d="M20 8h-16c-1.1 0-1.989 0.9-1.989 2l-0.011 12c0 1.1 0.9 2 2 2h16c1.1 0 2-0.9 2-2v-12c0-1.1-0.9-2-2-2zM19.6 12.251l-7.069 4.419c-0.151 0.094-0.334 0.15-0.531 0.15s-0.38-0.056-0.535-0.153l0.004 0.002-7.069-4.419c-0.252-0.15-0.418-0.422-0.418-0.731 0-0.469 0.38-0.849 0.849-0.849 0.174 0 0.337 0.053 0.471 0.143l6.697 4.187 6.7-4.191c0.132-0.088 0.294-0.141 0.468-0.141 0.469 0 0.849 0.38 0.849 0.849 0 0.31-0.166 0.581-0.414 0.729l-0.004 0.002z"></path>
    </symbol>
    <symbol id="icon-checkbox" viewBox="0 0 32 32">
      <path stroke-width="2.5" stroke-miterlimit="4" stroke-linecap="butt" stroke-linejoin="miter" d="M4 1.25h24c1.519 0 2.75 1.231 2.75 2.75v24c0 1.519-1.231 2.75-2.75 2.75h-24c-1.519 0-2.75-1.231-2.75-2.75v-24c0-1.519 1.231-2.75 2.75-2.75z"></path>
    </symbol>
    <symbol id="icon-check" viewBox="0 0 40 32">
      <path d="M33.784 1.020c0.659-0.637 1.558-1.030 2.548-1.030 2.007 0 3.637 1.611 3.668 3.611l0 0.003c0.001 0.028 0.001 0.061 0.001 0.095 0 0.965-0.368 1.844-0.972 2.504l0.003-0.003-19.576 24.616c-0.674 0.728-1.635 1.182-2.702 1.182-0.495 0-0.967-0.098-1.398-0.275l0.024 0.009c-0.477-0.197-0.884-0.473-1.224-0.816l-0-0-12.984-13.052c-0.724-0.677-1.175-1.638-1.175-2.705 0-0.501 0.1-0.98 0.28-1.416l-0.009 0.025c0.564-1.367 1.887-2.312 3.43-2.312 0.018 0 0.035 0 0.053 0l-0.003-0c1.038 0.019 1.967 0.467 2.622 1.174l0.002 0.002 10.276 10.328 17.040-21.832c0.032-0.039 0.065-0.074 0.1-0.108l-0.004-0z"></path>
    </symbol>
    <symbol id="icon-checkbox-active" viewBox="0 0 32 32">
      <path fill="#404bbf" style="fill: var(--color1, #404bbf)" d="M4 1.25h24c1.519 0 2.75 1.231 2.75 2.75v24c0 1.519-1.231 2.75-2.75 2.75h-24c-1.519 0-2.75-1.231-2.75-2.75v-24c0-1.519 1.231-2.75 2.75-2.75z"></path>
      <path fill="#f4f4fd" style="fill: var(--color2, #f4f4fd)" d="M22.892 8.51c0.329-0.319 0.779-0.515 1.274-0.515 1.003 0 1.819 0.806 1.834 1.805l0 0.001c0 0.014 0.001 0.031 0.001 0.047 0 0.482-0.184 0.922-0.486 1.252l0.001-0.001-9.788 12.308c-0.337 0.364-0.818 0.591-1.352 0.591-0.247 0-0.483-0.049-0.699-0.137l0.012 0.004c-0.239-0.099-0.442-0.237-0.612-0.408l-0-0-6.492-6.526c-0.362-0.339-0.588-0.819-0.588-1.352 0-0.251 0.050-0.49 0.14-0.708l-0.005 0.012c0.282-0.684 0.943-1.156 1.715-1.156 0.009 0 0.018 0 0.026 0h-0.001c0.519 0.010 0.984 0.234 1.311 0.587l0.001 0.001 5.138 5.164 8.52-10.916c0.016-0.020 0.032-0.037 0.050-0.054l-0.002-0z"></path>
      <path fill="none" stroke="#404bbf" stroke-width="2.5" stroke-miterlimit="4" stroke-linecap="butt" stroke-linejoin="miter" style="stroke: var(--color1, #404bbf)" d="M4 1.25h24c1.519 0 2.75 1.231 2.75 2.75v24c0 1.519-1.231 2.75-2.75 2.75h-24c-1.519 0-2.75-1.231-2.75-2.75v-24c0-1.519 1.231-2.75 2.75-2.75z"></path>
    </symbol>
    <symbol id="icon-hamburger" viewBox="0 0 47 32">
      <path stroke-width="4.3636" stroke-miterlimit="4" stroke-linecap="round" stroke-linejoin="round" d="M1.961 29.153h42.964M1.961 15.615h42.964M1.961 2.077h42.964"></path>
    </symbol>
  </defs>
</svg>
